Coordinates
version=1
nRows=9
nColumns=63
inDegrees=yes

Units are S.I. units (second, meters, Newtons, ...)
If the header above contains a line with 'inDegrees', this indicates whether rotational values are in degrees (yes) or radians (no).

endheader
time	pelvis_tilt	pelvis_list	pelvis_rotation	pelvis_tx	pelvis_ty	pelvis_tz	hip_flexion_r	hip_adduction_r	hip_rotation_r	knee_angle_r	knee_angle_r_beta	ankle_angle_r	subtalar_angle_r	mtp_angle_r	hip_flexion_l	hip_adduction_l	hip_rotation_l	knee_angle_l	knee_angle_l_beta	ankle_angle_l	subtalar_angle_l	mtp_angle_l	L5_S1_Flex_Ext	L5_S1_Lat_Bending	L5_S1_axial_rotation	L4_L5_Flex_Ext	L4_L5_Lat_Bending	L4_L5_axial_rotation	L3_L4_Flex_Ext	L3_L4_Lat_Bending	L3_L4_axial_rotation	L2_L3_Flex_Ext	L2_L3_Lat_Bending	L2_L3_axial_rotation	L1_L2_Flex_Ext	L1_L2_Lat_Bending	L1_L2_axial_rotation	L1_T12_Flex_Ext	L1_T12_Lat_Bending	L1_T12_axial_rotation	Abs_r3	Abs_r2	Abs_r1	Abs_t1	Abs_t2	neck_flexion	neck_bending	neck_rotation	arm_flex_r	arm_add_r	arm_rot_r	elbow_flex_r	pro_sup_r	wrist_flex_r	wrist_dev_r	arm_flex_l	arm_add_l	arm_rot_l	elbow_flex_l	pro_sup_l	wrist_flex_l	wrist_dev_l
     11.24200000	    -40.81856633	     -5.80640538	      0.77177579	     -0.18060662	      1.09597635	     -0.01382425	    109.29574175	     -6.92910710	     -6.49446122	     87.17447754	      1.52148166	     22.39419409	      1.20822653	      0.00000000	     87.15008133	     -2.32689849	     11.61318077	     79.54882542	      1.38838892	      0.68218677	     -9.11787037	      0.00000000	     -0.08099064	      0.62772911	     -0.04008559	     -0.15040771	      0.83487972	     -0.04259093	     -0.13305952	      1.52626057	     -0.04259093	     -0.09256420	      1.52626057	     -0.03507489	     -0.07520791	      1.28006521	     -0.03256954	     -0.04627805	      0.97235240	     -0.03006419	     -0.57850802	      7.10099729	     -0.22294400	      0.00000000	      0.00000000	     -0.00000000	      0.00000000	      0.00000000	     62.03421079	     -6.50999381	     25.03429898	     31.55718511	     25.99310522	      0.00000000	      5.00000014	     63.29714282	     -1.81139893	     16.36774779	     25.16805879	     40.00460839	      0.00000000	      5.00000014
     11.25000000	    -40.80733193	     -5.54908152	      1.35755314	     -0.18085710	      1.09574391	     -0.01433041	    108.17162110	     -7.25805278	     -6.31870445	     85.01140468	      1.48372891	     21.96168121	      1.25617986	      0.00000000	     88.00143962	     -1.68761337	     11.32708789	     81.56179137	      1.42352180	      0.88624221	     -9.03370075	      0.00000000	     -0.08332548	      0.58781834	     -0.14617744	     -0.15474376	      0.78179839	     -0.15531353	     -0.13689544	      1.42922151	     -0.15531353	     -0.09523270	      1.42922151	     -0.12790526	     -0.07737604	      1.19867916	     -0.11876917	     -0.04761218	      0.91053061	     -0.10963308	     -0.59518560	      6.64951863	     -0.81299504	      0.00000000	      0.00000000	     -0.00000000	      0.00000000	      0.00000000	     62.00543182	     -6.44465119	     24.94469138	     31.64112745	     25.97459573	      0.00000000	      5.00000014	     63.46252754	     -1.85927825	     16.40840080	     25.14662754	     40.01262429	      0.00000000	      5.00000014
     11.25800000	    -40.82693392	     -5.57416591	      1.55281193	     -0.18108293	      1.09559851	     -0.01423881	    106.77626605	     -7.15548009	     -6.49766785	     82.53169841	      1.44044987	     22.23752696	      0.95905237	      0.00000000	     89.10404310	     -1.53450123	     11.34968637	     83.76648418	      1.46200095	      0.51033573	     -8.12545471	      0.00000000	     -0.08123659	      0.58382020	     -0.18447461	     -0.15086447	      0.77648087	     -0.19600428	     -0.13346359	      1.41950044	     -0.19600428	     -0.09284530	      1.41950044	     -0.16141529	     -0.07543630	      1.19052615	     -0.14988562	     -0.04641859	      0.90433749	     -0.13835596	     -0.58026484	      6.60429088	     -1.02599246	      0.00000000	      0.00000000	     -0.00000000	      0.00000000	      0.00000000	     61.94004115	     -6.31915939	     24.48215873	     31.68278733	     25.87808621	      0.00000000	      5.00000014	     63.64311906	     -1.87661723	     16.62682034	     24.88409458	     40.05813985	      0.00000000	      5.00000014
     11.26700000	    -40.84458523	     -5.55816083	      1.79925627	     -0.18135184	      1.09546694	     -0.01421699	    105.39686788	     -7.13225544	     -6.60796862	     80.12758765	      1.39849023	     21.99488505	      0.79869659	      0.00000000	     90.15208584	     -1.29682466	     11.31643673	     85.87946780	      1.49887947	      0.77197090	     -7.45329593	      0.00000000	     -0.07976458	      0.57210349	     -0.22433824	     -0.14813080	      0.76089764	     -0.23835937	     -0.13104523	      1.39101243	     -0.23835937	     -0.09116294	      1.39101243	     -0.19629596	     -0.07406939	      1.16663344	     -0.18227482	     -0.04557748	      0.88618831	     -0.16825368	     -0.56975041	      6.47174913	     -1.24770196	      0.00000000	      0.00000000	     -0.00000000	      0.00000000	      0.00000000	     61.81742721	     -6.27308318	     23.93042332	     31.85200955	     25.76533753	      0.00000000	      5.00000014	     63.85508005	     -1.87858531	     16.87794928	     24.60977066	     40.11203672	      0.00000000	      5.00000014
     11.27500000	    -40.86796173	     -5.46342063	      1.97136058	     -0.18167675	      1.09530599	     -0.01397589	    104.01642065	     -7.00117253	     -6.61851994	     77.74138493	      1.35684313	     21.59601861	      0.57544751	      0.00000000	     91.23050370	     -1.11211887	     11.21598136	     87.98725188	      1.53566725	      1.19192979	     -6.84374777	      0.00000000	     -0.08006045	      0.54841992	     -0.25142873	     -0.14868025	      0.72939849	     -0.26714303	     -0.13153131	      1.33342818	     -0.26714303	     -0.09150108	      1.33342818	     -0.22000014	     -0.07434413	      1.11833789	     -0.20428585	     -0.04574654	      0.84950245	     -0.18857155	     -0.57186376	      6.20383577	     -1.39837119	      0.00000000	      0.00000000	     -0.00000000	      0.00000000	      0.00000000	     61.66977813	     -6.16688872	     23.32167245	     32.06850293	     25.63870153	      0.00000000	      5.00000014	     64.11892378	     -1.86770203	     17.15974006	     24.32733004	     40.17495389	      0.00000000	      5.00000014
     11.28300000	    -40.90371161	     -5.28541653	      2.08599988	     -0.18199446	      1.09519937	     -0.01365177	    102.60359127	     -6.77235560	     -6.48622638	     75.31078558	      1.31442117	     21.17872620	      0.35904783	      0.00000000	     92.32925270	     -0.94116024	     11.03335473	     90.02699544	      1.57126749	      1.53018809	     -6.52012971	      0.00000000	     -0.07849277	      0.51293085	     -0.27090879	     -0.14576892	      0.68219803	     -0.28784059	     -0.12895577	      1.24714007	     -0.28784059	     -0.08970939	      1.24714007	     -0.23704519	     -0.07288839	      1.04596859	     -0.22011339	     -0.04485077	      0.79452989	     -0.20318159	     -0.56066600	      5.80237637	     -1.50671343	      0.00000000	      0.00000000	     -0.00000000	      0.00000000	      0.00000000	     61.53985087	     -6.11117603	     22.89968947	     32.22071946	     25.55214744	      0.00000000	      5.00000014	     64.36233211	     -1.88827072	     17.33390676	     24.05885054	     40.21865895	      0.00000000	      5.00000014
     11.29200000	    -40.93148892	     -5.13688943	      2.01369263	     -0.18223126	      1.09508666	     -0.01305614	    101.13774720	     -6.37375226	     -6.42826077	     72.87766964	      1.27195529	     20.60550209	      0.06695563	      0.00000000	     93.47628514	     -0.91470686	     10.96085058	     92.10405677	      1.60751905	      2.01058122	     -6.23932544	      0.00000000	     -0.07972562	      0.48132086	     -0.26202310	     -0.14805846	      0.64015675	     -0.27839955	     -0.13098123	      1.17028354	     -0.27839955	     -0.09111842	      1.17028354	     -0.22927022	     -0.07403321	      0.98150950	     -0.21289377	     -0.04555522	      0.74556602	     -0.19651733	     -0.56947216	      5.44479786	     -1.45729390	      0.00000000	      0.00000000	     -0.00000000	      0.00000000	      0.00000000	     61.37117851	     -5.99996863	     22.37787763	     32.44305868	     25.44554803	      0.00000000	      5.00000014	     64.61558844	     -1.91185529	     17.56172406	     23.77398510	     40.27963056	      0.00000000	      5.00000014
     11.30000000	    -40.95576624	     -4.96500813	      1.80083982	     -0.18230776	      1.09495778	     -0.01230022	     99.60968217	     -5.81090951	     -6.33757560	     70.39256417	      1.22858201	     20.05609179	     -0.28797300	      0.00000000	     94.64994747	     -0.98305874	     10.91884010	     94.15933757	      1.64339046	      2.51013145	     -6.03643903	      0.00000000	     -0.07817948	      0.44682911	     -0.22639982	     -0.14518711	      0.59428272	     -0.24054981	     -0.12844106	      1.08642030	     -0.24054981	     -0.08935132	      1.08642030	     -0.19809984	     -0.07259746	      0.91117393	     -0.18394985	     -0.04467175	      0.69213829	     -0.16979987	     -0.55842819	      5.05462028	     -1.25916788	      0.00000000	      0.00000000	     -0.00000000	      0.00000000	      0.00000000	     61.18106792	     -5.94434427	     21.84454135	     32.59479385	     25.33725221	      0.00000000	      5.00000014	     64.80509537	     -1.95918441	     17.80517847	     23.52593461	     40.34874659	      0.00000000	      5.00000014
     11.30800000	    -40.97344843	     -4.77434283	      1.54431236	     -0.18231917	      1.09484240	     -0.01153724	     98.05609695	     -5.21845479	     -6.21616078	     67.92581873	      1.18552918	     19.33600398	     -0.67719346	      0.00000000	     95.84925511	     -1.05692233	     10.92210342	     96.15024178	      1.67813830	      3.11696878	     -5.85597967	      0.00000000	     -0.07654412	      0.41119427	     -0.18532774	     -0.14215008	      0.54688837	     -0.19691072	     -0.12575433	      0.99977774	     -0.19691072	     -0.08748227	      0.99977774	     -0.16216177	     -0.07107887	      0.83850735	     -0.15057879	     -0.04373731	      0.63693992	     -0.13899580	     -0.54674699	      4.65151177	     -1.03073729	      0.00000000	      0.00000000	     -0.00000000	      0.00000000	      0.00000000	     60.97083355	     -5.85571540	     21.22749023	     32.75690632	     25.20776449	      0.00000000	      5.00000014	     64.96229423	     -2.03743916	     18.15246615	     23.34947829	     40.44910233	      0.00000000	      5.00000014
